With: Lea Thompson, Thomas Gibson en Sonia Braga

Vijf generaties vrouwen van 1884 tot 1985 strijden voor een verandering van de maatschappij. Alles speelt zich af aan de hand van gebeurtenissen binnen een familie. Annie emigreert van Europa naar de Verenigde Staten. Uit de verboden liefde met de zoon van haar werkgeefster raakt ze zwanger. Haar nicht Susan de kleindochter van de plaatselijke dokter, opent één van de eerste huizen voor mishandelde vrouwen in de Verenigde Staten.

A two-part epic that "chronicles women's lives in the 20th century".

------------------------ Dutch Friends ------------------------
---------------------------------------------------------------
- Bezoek ook eens mijn vrienden op:  http://www.Film-Test.nl --
----- voor mijn Nederlandse Sync. ondertitels ---- en meer ----
------- http://www.Film-Test.nl ---- voor Films en meer -------
---------------------------------------------------------------

General:

Complete name                    : A Will of Thier OwnPart01.avi
Format                           : AVI
Format/Info                      : Audio Video Interleave
File size                        : 1.94 GiB
Duration                         : 2h 6mn
Overall bit rate                 : 2 200 Kbps

Video:

Format                           : MPEG-4 Visual
Format profile                   : Simple@L3
Format settings, BVOP            : No
Format settings, QPel            : No
Format settings, GMC             : No warppoints
Format settings, Matrix          : Default (H.263)
Codec ID                         : XVID
Codec ID/Hint                    : XviD
Duration                         : 2h 6mn
Bit rate                         : 1 965 Kbps
Width                            : 640 pixels
Height                           : 480 pixels
Display aspect ratio             : 4:3
Frame rate                       : 25.000 fps
Color space                      : YUV
Chroma subsampling               : 4:2:0
Bit depth                        : 8 bits
Scan type                        : Progressive
Compression mode                 : Lossy
Bits/(Pixel*Frame)               : 0.256
Stream size                      : 1.73 GiB (89%)
Writing library                  : XviD 1.1.2 (UTC 2006-11-01)

Audio:

Format                           : AC-3
Format/Info                      : Audio Coding 3
Mode extension                   : CM (complete main)
Codec ID                         : 2000
Duration                         : 2h 6mn
Bit rate mode                    : Constant
Bit rate                         : 224 Kbps
Channel(s)                       : 2 channels
Channel positions                : Front: L R
Sampling rate                    : 48.0 KHz
Bit depth                        : 16 bits
Compression mode                 : Lossy
Stream size                      : 202 MiB (10%)
Alignment                        : Aligned on interleaves
Interleave, duration             : 32 ms (0.80 video frame)
Interleave, preload duration     : 128 ms

